<svg
   width="210mm"
   height="297mm"
   viewBox="0 0 210 297"
   version="1.1"
   id="svg5"
   inkscape:version="1.1.2 (b8e25be833, 2022-02-05)"
   sodipodi:docname="drawing.svg"
   xmlns:inkscape="http://www.inkscape.org/namespaces/inkscape"
   xmlns:sodipodi="http://sodipodi.sourceforge.net/DTD/sodipodi-0.dtd"
   xmlns="http://www.w3.org/2000/svg"
   xmlns:svg="http://www.w3.org/2000/svg">
  <sodipodi:namedview
     id="namedview7"
     pagecolor="#ffffff"
     bordercolor="#666666"
     borderopacity="1.0"
     inkscape:pageshadow="2"
     inkscape:pageopacity="0.0"
     inkscape:pagecheckerboard="0"
     inkscape:document-units="mm"
     showgrid="false"
     inkscape:zoom="0.50898197"
     inkscape:cx="273.09415"
     inkscape:cy="606.11184"
     inkscape:window-width="1920"
     inkscape:window-height="1001"
     inkscape:window-x="-9"
     inkscape:window-y="-9"
     inkscape:window-maximized="1"
     inkscape:current-layer="layer1" />
  <defs
     id="defs2">
    <rect
       x="155.59679"
       y="319.52912"
       width="508.46808"
       height="244.50924"
       id="rect3926" />
    <rect
       x="155.59679"
       y="319.52912"
       width="508.46808"
       height="244.50924"
       id="rect12536" />
    <clipPath
       clipPathUnits="userSpaceOnUse"
       id="clipPath18101">
      <path
         id="path18103"
         style="fill:#ff0000;fill-opacity:1;fill-rule:nonzero;stroke:none;stroke-width:0.355383"
         d="m -167.89315,-61.141441 -44.62921,-32.19199 32.77167,117.977572 44.62922,32.19199 z m -9.69452,16.954664 c 0.047,0.16104 -0.0344,0.238559 -0.0503,0.342663 -0.0487,0.314575 -0.0867,0.637899 -0.10061,0.982532 -0.0194,0.09514 -0.0183,0.09313 -0.0507,0.212179 -0.0156,0.05707 0.004,0.149353 -0.0487,0.169342 -0.11893,0.04475 -0.40242,-0.08898 -0.45692,0.02089 -0.0303,0.06112 0.22264,0.04869 0.37347,0.147118 0.0641,0.04184 -0.0388,0.03923 -0.0583,0.05863 -0.0797,0.124139 -0.15519,0.229993 -0.2122,0.378176 -0.0197,0.05136 -0.0239,0.116673 -0.0392,0.171985 -0.0437,0.15631 -0.0949,0.298534 -0.20488,0.391359 -0.0973,0.06334 -0.12348,0.196522 -0.15941,0.318231 -0.0453,0.153091 -0.0705,0.321667 -0.12388,0.467183 -0.0804,0.105953 -0.0885,0.143452 -0.24409,0.194958 -0.0295,0.0098 -0.0776,-0.0017 -0.11606,-0.002 -0.0423,-3.76e-4 -0.0788,0.0061 -0.12575,-5.4e-5 -0.006,-0.0012 8.4e-4,-0.01761 -0.003,-0.01643 -0.0164,0.0068 -0.0247,0.02183 -0.0369,0.03293 -0.01,0.143429 -0.007,0.201036 -0.0508,0.330141 -0.012,0.03563 -0.0353,0.06073 -0.0539,0.09026 -0.0822,0.130947 -0.15967,0.265359 -0.32043,0.317507 -0.0438,-0.0019 -0.0983,-0.01575 -0.13269,-0.0066 -0.0181,0.0048 -0.0245,0.02167 -0.0391,0.03029 -0.11891,0.07115 -0.21414,0.06142 -0.52716,-0.11094 -0.24868,-0.179108 -0.49597,-0.35098 -0.74762,-0.54143 -0.0726,-0.05688 -0.14842,-0.117989 -0.2194,-0.168814 -0.10881,-0.07794 -0.21491,-0.143226 -0.32562,-0.230127 -0.18437,-0.144697 -0.36371,-0.376887 -0.54435,-0.512284 -0.14907,-0.140454 -0.29783,-0.28299 -0.44762,-0.421954 -0.67939,-0.630328 0.29439,0.293152 -0.59005,-0.539981 -0.10156,-0.09568 -0.19696,-0.2007 -0.30079,-0.293388 -0.0465,-0.04378 -0.094,-0.08582 -0.14098,-0.128564 -0.11317,-0.105703 -0.23397,-0.205764 -0.33736,-0.319766 -0.006,-0.0075 0.0111,-0.0039 0.003,-0.0112 -0.0559,-0.05186 -0.11382,-0.09308 -0.17005,-0.14373 -0.09,-0.08107 -0.22847,-0.224163 -0.3125,-0.30921 -0.0611,-0.133189 0.021,0.01624 -0.26841,-0.237357 -0.25941,-0.227406 -0.42063,-0.446267 -0.64404,-0.686964 -0.17982,-0.23078 -0.18024,-0.242616 -0.34291,-0.468701 -0.24225,-0.336626 -0.55269,-0.736639 -0.58002,-0.964377 -0.0538,-0.207247 -0.21913,-0.505239 -0.14924,-0.616231 0.0328,-0.08549 0.0194,-0.03481 0.0372,-0.155513 0.06,-0.160302 0.0882,-0.127018 0.18465,-0.279995 0.0272,-0.04786 0.0602,-0.09025 0.0814,-0.143631 0.0738,-0.185035 -0.0495,-0.09664 0.11795,-0.267503 0.0145,-0.01464 0.046,-0.01136 0.0671,-0.01908 0.0303,-0.01102 0.0622,-0.02072 0.0877,-0.03687 0.0219,-0.01378 0.0365,-0.03526 0.0548,-0.0527 0.10552,-0.08481 0.23339,-0.139797 0.37825,-0.183037 0.0227,-0.0068 0.0425,-0.01683 0.064,-0.02502 -0.007,-0.01775 -0.001,-0.05035 0.04,-0.111356 0.0456,-0.06773 0.0962,-0.09832 0.13356,-0.111311 -0.0106,-3.08e-4 -0.0189,2.5e-5 -0.0333,-0.0013 -0.0188,-0.0018 0.009,-0.0017 0.0526,-0.0026 0.001,-3.37e-4 0.003,-3.36e-4 0.004,-6.73e-4 0.0188,-0.0034 0.0309,-0.0035 0.0313,-6.27e-4 0.14922,-0.0043 0.39018,-0.01941 0.0292,-0.105429 0.0558,-0.04917 0.10386,-0.106685 0.16716,-0.148203 0.1072,-0.07024 0.27015,-0.09246 0.3618,-0.179093 0.0238,-0.02267 0.0175,-0.0742 0.0339,-0.104113 0.032,-0.05847 0.0672,-0.113773 0.11105,-0.160746 0.0471,-0.05051 0.10721,-0.08777 0.16078,-0.131733 0.0941,-0.04486 0.17565,-0.103722 0.28286,-0.134315 0.0532,-0.0153 0.12924,-0.0045 0.19739,-0.0025 0.22351,0.0063 0.46515,0.02763 0.74466,0.114991 0.26796,0.10582 0.53229,0.206332 0.79629,0.306124 0.24686,0.09332 0.25548,0.08761 0.56706,0.241437 0.0257,0.01273 0.0577,0.03701 0.0863,0.05539 0.0804,0.05248 0.20561,0.132367 0.28776,0.193866 0.24776,0.185457 0.49129,0.408261 0.73978,0.618471 0.56266,0.452435 -0.32299,-0.253516 0.37847,0.2809 0.0846,0.06449 0.16967,0.130459 0.25505,0.19979 0.0559,-0.0025 0.14379,0.0216 0.26908,0.08183 0.08,0.03846 0.0362,0.01787 0.13016,0.06068 0.009,0.0042 0.0206,0.0026 0.0278,0.0132 0.008,0.01104 -0.003,0.01724 -0.005,0.01977 l 9.4e-4,6.75e-4 c 0.0249,10e-4 0.0344,-0.01587 0.0563,-0.01843 0.30527,-0.03541 0.31839,0.01051 1.02063,0.471636 0.0603,0.07696 0.13766,0.150309 0.20298,0.2281 0.20181,0.240081 0.16377,0.210531 0.2579,0.417921 0.007,0.0031 0.0142,0.02616 0.0216,0.04613 0.001,0.0033 0.003,0.0061 0.004,0.0092 0.004,0.0075 0.005,0.01228 0.009,0.02052 0.13015,0.257207 0.0403,0.06628 0.1868,0.398779 0.029,0.104289 0.0504,0.202927 0.0758,0.304506 0.0104,0.04003 0.0899,0.163761 0.0329,0.121256 -0.006,-0.0044 -0.0118,-0.0094 -0.0177,-0.01388 0.0518,0.06624 0.0695,0.126566 0.0964,0.183907 0.0126,0.0268 0.022,0.05146 0.0287,0.07449 z m -0.27892,-0.0278 c -0.21181,-0.260536 -0.44867,-0.525004 -0.63513,-0.7812 -0.0497,-0.06827 -0.0274,-0.09804 -0.0399,-0.146298 -0.0248,-0.10007 -0.0465,-0.197379 -0.0754,-0.300534 -0.0329,-0.06433 -0.0634,-0.121391 -0.0909,-0.174677 -0.10424,-0.0063 -0.23947,-0.01522 -0.25205,-0.0179 -0.0303,-0.0064 -0.07,-0.02507 -0.10475,-0.03761 -0.01,-0.0042 -0.006,-0.0026 -0.0141,-0.0059 0.64979,0.703743 0.0343,0.06123 -0.39036,0.08155 -0.0207,0.001 -0.51892,-0.58479 -0.60564,-0.640817 -0.0195,-0.01273 -0.0259,-0.0023 -0.0446,-0.0132 -0.11263,-0.06535 -0.34265,-0.252582 -0.43039,-0.32046 -0.20778,-0.162803 -0.41592,-0.362351 -0.62294,-0.532087 -0.0656,-0.05377 -0.16196,-0.109833 -0.22105,-0.148378 -0.0246,-0.01587 -0.0528,-0.03835 -0.0739,-0.04748 -0.0461,-0.01988 -0.0811,-0.02295 -0.12375,-0.03762 -0.0593,-0.02039 -0.12071,-0.04429 -0.1817,-0.0673 -0.269,-0.101408 -0.53844,-0.203591 -0.81165,-0.311401 -0.0166,-0.0073 -0.0366,-0.01962 -0.0501,-0.02242 -0.0393,-0.0081 -0.07,-0.0049 -0.10747,-0.01059 -0.30502,-0.04594 -0.0585,-0.03562 -0.42478,-0.04236 -0.062,-0.0012 -0.13234,-0.01168 -0.1804,0.0032 -0.0825,0.02569 -0.13938,0.079 -0.20903,0.118533 -0.047,0.03961 -0.10086,0.07233 -0.14196,0.117897 -0.0364,0.04049 -0.0642,0.08941 -0.0906,0.139673 -0.0101,0.01953 -0.003,0.05535 -0.0186,0.06985 -0.30998,0.29452 -0.11602,0.05158 -0.42227,0.250898 -0.054,0.03521 -0.0925,0.08606 -0.13884,0.129108 -0.0391,0.0667 -0.0545,0.13076 -0.15895,0.13305 -0.0479,0.0011 -0.14529,-0.05885 -0.18004,-0.04292 -0.0283,0.01299 0.0924,0.01106 0.1594,0.05279 0.0255,0.01597 0.0139,0.04054 0.0139,0.05533 1.6e-4,0.03721 -0.008,0.06723 -0.0131,0.100165 -0.0206,0.01615 -0.037,0.03655 -0.0619,0.04808 -0.0726,0.03323 -0.16435,0.04547 -0.24214,0.07304 -0.0871,0.03087 -0.15556,0.07168 -0.22017,0.125776 -0.0678,0.06536 -0.0472,0.05612 -0.16609,0.104711 -0.0266,0.01075 -0.0673,0.0065 -0.0857,0.02566 -0.0265,0.02748 -0.0202,0.135304 -0.0357,0.173961 -0.0266,0.06611 -0.0635,0.122419 -0.0951,0.183824 -0.0365,0.05234 -0.0896,0.142916 -0.14577,0.183141 -0.0145,0.01042 -0.0464,0.0028 -0.0545,0.01975 -0.003,0.007 0.0261,0.03622 0.0276,0.04681 0.006,0.04878 -0.0315,0.14042 -0.0409,0.168688 -0.009,0.0142 -0.0294,0.01828 -0.027,0.04216 7.3e-4,0.0067 0.0256,0.01277 0.0327,0.02306 0.0162,0.02248 0.0152,0.03618 0.0232,0.05472 0.0495,0.122822 0.0766,0.209501 0.11218,0.32756 0.0103,0.04259 6.2e-4,0.07285 0.0329,0.129117 0.0301,0.05238 0.0956,0.115264 0.14008,0.172718 0.11674,0.150718 0.23956,0.323492 0.3409,0.469361 0.0148,0.0214 0.0256,0.03787 0.0362,0.05404 0.0678,0.07546 0.13489,0.151063 0.20115,0.226787 0.0227,0.02596 0.0439,0.05171 0.0655,0.07779 0.0217,0.01894 0.0443,0.03869 0.0567,0.05144 0.002,0.0017 0.003,0.0037 0.005,0.0061 0.10825,0.09633 0.2169,0.19258 0.3251,0.288785 -0.46534,-0.355626 0.42386,0.387326 0.31744,0.313826 -0.01,-0.007 -0.0258,-0.01995 -0.0424,-0.0343 0.0687,0.0619 0.13773,0.122635 0.20589,0.185929 0.0482,0.0448 0.0949,0.09288 0.14244,0.139112 0.053,0.04911 0.10556,0.09792 0.15853,0.147024 0.0359,0.03254 0.0717,0.06338 0.10734,0.09693 0.13763,0.1297 0.27146,0.266622 0.40903,0.396237 0.43106,0.406113 0.0871,0.07175 0.4723,0.429216 0.1691,0.156895 0.33695,0.316401 0.5054,0.474703 -0.0948,0.102532 0.21391,0.244132 0.39349,0.369214 0.0851,0.04699 0.3829,0.279593 0.45691,0.336971 0.22249,0.165421 0.44087,0.317756 0.66166,0.476731 0.0198,-0.05773 -0.11222,-0.06783 -0.11245,-0.08902 -4.7e-4,-0.0195 0.024,-0.01552 0.0358,-0.0237 0.0599,-0.04405 0.15855,-0.04288 0.25915,-0.04075 0.0813,-0.116824 0.19786,-0.202691 0.24602,-0.351142 0.0266,-0.08139 0.0267,-0.165593 0.0322,-0.26293 0.0252,-0.137302 0.14749,-0.140731 0.3015,-0.140897 0.0406,3.4e-5 0.0934,0.01372 0.12429,0.0027 0.0432,-0.01553 0.0988,-0.108823 0.12439,-0.146905 0.0814,-0.286586 0.1022,-0.631613 0.30302,-0.806494 0.14356,-0.09459 0.13883,-0.32787 0.20355,-0.496143 0.0725,-0.188584 0.13215,-0.268414 0.229,-0.420348 -0.0986,-0.275074 0.43344,0.192511 0.47671,0.09774 0.0209,-0.04561 -0.27515,-0.188216 -0.34667,-0.298017 -0.0753,-0.115656 0.0323,-0.107434 0.0471,-0.162095 0.0314,-0.115985 0.0287,-0.110753 0.0467,-0.200318 0.0114,-0.343722 0.0518,-0.662042 0.10007,-0.973968 -0.003,-0.09062 0.0659,-0.120893 0.0588,-0.214811 -0.003,-0.0084 -0.006,-0.0167 -0.01,-0.02511 -0.004,-0.0091 7.2e-4,-0.02369 0.003,-0.01582 0.004,0.01517 0.006,0.02828 0.007,0.04087 0.0136,0.03839 0.0234,0.07742 0.0666,0.12391 0.14682,0.158265 0.31558,0.295668 0.47341,0.443718 z m -6.78224,0.339087 c -0.0171,-0.01522 -0.0343,-0.03025 -0.0514,-0.04547 0.0213,0.02558 0.0427,0.05083 0.0664,0.07581 0.0105,0.01134 -0.003,-0.01492 -0.015,-0.03034 z m -0.0514,-0.04547 c -0.003,-0.0041 -0.007,-0.0079 -0.01,-0.01188 -0.0366,-0.03193 -0.0713,-0.06049 -0.0494,-0.04087 0.0197,0.01762 0.0395,0.03518 0.0592,0.05274 z m 5.88074,-2.042355 c -0.10787,-0.0397 -0.12111,-0.02353 -0.0961,0.01446 0.0352,0.03433 0.0727,0.06898 0.10988,0.103495 -0.0109,-0.04059 -0.0164,-0.0796 -0.0137,-0.117962 z m -2.07732,14.445174 c 0.0407,0.146501 -0.12047,0.147629 -0.52279,-0.142574 l -0.54117,-0.390362 c -0.0249,-0.0072 -0.0363,-0.01068 -0.0779,-0.02244 -0.0646,-0.03837 -0.12889,-0.07646 -0.19342,-0.11475 0.0206,0.01567 0.0529,0.02931 0.0622,0.04756 0.009,0.01731 -0.032,-0.01324 -0.0494,-0.02244 -0.0451,-0.02384 -0.0907,-0.04794 -0.13839,-0.07716 -0.0382,-0.0235 -0.0913,-0.07444 -0.11884,-0.08046 -0.0203,-0.0045 0.0614,0.0504 0.0918,0.07516 -0.0227,-0.0053 -0.0415,-0.005 -0.068,-0.01584 -0.0873,-0.03579 -0.17841,-0.07779 -0.27202,-0.124008 -0.0838,-0.04137 -0.26012,-0.162941 -0.32486,-0.166869 -0.11131,8.76e-4 -0.27042,-0.1529 -0.42085,-0.251925 -0.0125,-0.0082 -0.015,-5.46e-4 -0.0247,-0.0046 -0.0393,-0.01723 -0.13527,-0.07461 -0.17386,-0.09695 -0.0292,-0.01891 -0.0861,-0.0726 -0.0874,-0.05673 -9.9e-4,0.01488 0.0888,0.06539 0.0854,0.07846 -0.006,0.02489 -0.0594,0.0027 -0.10162,-0.01323 -0.0927,-0.03512 -0.19237,-0.07945 -0.29963,-0.139177 -0.27943,-0.189368 -0.16213,-0.120162 -0.35906,-0.224217 -0.009,-0.0046 -0.0305,-0.01601 -0.0453,-0.02375 0.004,0.01239 0.007,0.02394 0.0108,0.03627 -0.0928,-0.04902 -0.18559,-0.09804 -0.27843,-0.14708 -0.19394,-0.102417 -0.24558,-0.16921 -0.23112,-0.218891 -0.0139,-0.01597 -0.0256,-0.03126 -0.0256,-0.03692 -0.002,-0.04625 3.1e-4,-0.08876 0.005,-0.129166 -0.037,-0.09708 -0.0787,-0.197649 -0.11362,-0.293293 0.0515,0.02352 0.10245,0.04644 0.15392,0.06992 0.003,-0.01538 0.005,-0.03091 0.007,-0.0468 -0.0299,-0.01874 -0.0621,-0.02478 -0.0903,-0.05673 -0.0881,-0.09952 0.60789,0.460425 0.26581,0.143775 0.10258,0.06185 0.20267,0.118705 0.30732,0.185318 0.0196,0.01253 -0.0594,0.01639 0.0444,0.05471 0.0499,0.01837 0.074,0.0017 0.12155,0.01653 0.27021,0.08427 0.4736,0.210564 0.29248,0.100294 0.0562,0.03352 0.38946,0.221429 0.43237,0.261815 0.0973,0.03709 0.18557,0.07839 0.30182,0.141817 0.006,0.0029 0.21245,0.122197 0.21719,0.123984 0.0423,0.01729 0.0741,0.01908 0.11096,0.02839 0.10185,0.04808 0.20568,0.0994 0.30529,0.143795 0.003,0.0014 0.003,0.001 5.6e-4,-6.74e-4 -0.012,-0.0057 -0.0278,-0.01368 -0.0501,-0.02507 -0.004,-0.002 8e-4,-0.0025 0.002,-0.0032 0.0115,0.007 0.0403,0.02323 0.0481,0.02837 0.083,0.03925 -0.0246,-0.02572 0.10036,0.04813 0.0178,0.0017 0.037,0.005 0.0603,0.01452 0.19562,0.0799 0.34145,0.198336 0.57114,0.36402 l 0.32453,0.234088 c 0.40231,0.290199 0.64486,0.581996 0.68555,0.728497 z m -4.05883,-2.485552 c -0.0129,0.07499 -0.0311,0.145266 -0.0403,0.223386 0.0167,0.04387 0.0325,0.08692 0.046,0.128547 0.11,-0.100619 0.48853,-0.126251 0.043,-0.329487 -0.0162,-0.0074 -0.0325,-0.01506 -0.0486,-0.02242 z m -0.40201,-13.399742 c 0.001,-3.37e-4 -0.003,-3.39e-4 -0.009,-4e-6 -7.5e-4,0.0013 -0.003,0.003 -0.003,0.0039 0.008,-0.0025 0.0111,-0.0035 0.012,-0.004 z m 0.42409,3.23195 c -0.001,-0.0034 -0.005,-0.01259 -0.0132,-0.02902 -0.005,-0.0061 -0.0151,-0.01755 -0.0238,-0.02771 0.0207,0.03183 0.033,0.05219 0.0362,0.05669 z" />
    </clipPath>
    <clipPath
       clipPathUnits="userSpaceOnUse"
       id="clipPath18665">
      <path
         id="path18667"
         style="fill:#ff0000;fill-opacity:1;fill-rule:nonzero;stroke:none;stroke-width:0.355383"
         d="m -167.58504,-60.055923 c -0.005,-0.01707 -0.0152,-0.03365 -0.0207,-0.05076 l 0.0139,0.05009 z m -0.0207,-0.05076 0.003,0.002 c -10e-4,-0.0044 -0.004,-0.0087 -0.006,-0.01323 z m -0.003,-0.0112 0.004,6.77e-4 c -0.002,-0.0074 -0.006,-0.01309 -0.01,-0.02183 z m -0.006,-0.02109 0.002,0.0014 c -7.3e-4,-0.0021 -0.002,-0.0046 -0.004,-0.0073 z m -0.002,-0.0059 0.002,-6.74e-4 c -9.6e-4,-0.0041 -10e-4,-0.0078 -0.006,-0.01191 l 0.003,0.01184 z m -0.003,-0.01252 h 7.5e-4 l -1.9e-4,-6.75e-4 -0.27391,-0.983371 -44.62918,-32.19197 32.77168,117.977592 44.62922,32.191993 -28.43763,-102.375049 c -0.0639,-0.01221 -0.15464,-0.05052 -0.27421,-0.121375 0.0704,0.202326 0.12673,0.394256 0.11816,0.541107 -0.0214,0.07416 -0.0419,0.149023 -0.0639,0.222714 0.12595,0.426171 0.22418,0.832501 0.3422,1.252929 0.016,0.05882 0.13111,0.237469 0.0485,0.177276 -0.0987,-0.07173 -0.20896,-0.157013 -0.3227,-0.245937 0.004,0.01303 0.008,0.02673 0.0117,0.03956 0.11724,0.087 0.23204,0.175065 0.34337,0.265084 0.16137,0.130324 0.0917,0.248317 0.12703,0.365157 0.0536,0.17269 0.099,0.339637 0.13782,0.501534 0.0696,0.281195 0.12784,0.553865 0.19211,0.831089 0.0941,0.537429 0.15227,1.049256 0.33763,1.654908 0.0371,0.13329 0.0743,0.266273 0.11094,0.399408 0.003,0.01265 0.0118,0.05065 0.0104,0.03757 0.0114,0.03816 0.0157,0.04858 0.0222,0.07189 0.0745,0.262629 0.16782,0.601447 0.23638,0.848259 0.30917,1.125137 0.60813,2.242086 0.97996,3.412085 0.0488,0.186293 0.11553,0.386298 0.1485,0.560889 0.0138,0.07286 0.10887,0.641607 0.11704,0.926612 0.0343,0.126061 0.0653,0.24978 0.0897,0.367766 0.062,0.235192 0.10664,0.456776 0.11509,0.64851 0.0176,0.112602 0.0348,0.223887 0.0548,0.339412 0.0276,0.159388 0.0661,0.327105 0.0925,0.485727 0.0402,0.240605 0.0719,0.474542 0.1078,0.711771 0.0247,0.392653 0.0371,0.515412 0.0381,0.931855 2.5e-4,0.105859 0.17289,0.486257 -0.0119,0.307089 -0.061,-0.05903 -0.11598,-0.140501 -0.16295,-0.226109 0.0201,0.06847 0.0411,0.134375 0.063,0.210906 -2e-5,0.0011 -6.6e-4,0.0017 -7.8e-4,0.0026 0.15619,0.315436 0.30305,0.624541 0.19517,0.750021 -0.021,0.304909 -0.0155,0.332286 -0.0832,0.647766 -0.003,0.01468 -0.0148,0.05497 -0.0245,0.0303 -0.0429,-0.105585 -0.10234,-0.288383 -0.15555,-0.449499 -0.008,0.01707 -0.014,0.03334 -0.0254,0.05073 0.28031,1.085236 0.18228,-0.05431 0.22984,0.998489 -0.04,0.254077 -0.0841,0.478477 -0.0764,0.777595 0.003,0.102827 0.0156,0.21489 0.0303,0.327538 l 1.9e-4,6.75e-4 c 0.0304,0.04205 0.0444,0.118356 0.0981,0.36113 0.1031,0.569031 0.0945,1.051741 0.0879,1.532228 -0.004,0.192984 -0.0392,0.360868 -0.0656,0.535082 -0.003,-0.0047 -0.007,-0.01495 -0.0101,-0.02042 -1.4e-4,0.01026 7.4e-4,0.02126 7.4e-4,0.03163 0.003,3.39e-4 0.006,-0.0012 0.007,6.78e-4 -0.002,0.01414 -0.005,0.02788 -0.007,0.04218 -4.6e-4,0.0024 -3.3e-4,0.0056 -8.2e-4,0.0078 -5.2e-4,0.07169 0.002,0.146961 6.5e-4,0.21813 -0.005,0.130762 -0.007,0.264646 -0.0112,0.396717 -0.0183,-0.03277 -0.0363,-0.06421 -0.0545,-0.08568 0.0111,0.03742 0.0202,0.06599 0.031,0.100903 0.008,0.02207 0.014,0.04383 0.0211,0.06531 7e-4,-0.02605 0.002,-0.05179 0.003,-0.07778 0.21125,0.380192 0.38808,1.316928 0.0531,0.264938 0.0159,0.06246 0.03,0.1244 0.0416,0.191806 -0.0415,0.0984 -0.0771,0.202191 -0.11518,0.303752 -0.005,0.207927 -0.009,0.415929 -0.0167,0.621436 -0.006,0.152605 -0.0167,0.300748 -0.0263,0.450088 0.002,0.0046 0.003,0.0071 0.007,0.01121 0.0382,0.340525 0.0504,0.395278 0.0545,0.443533 -0.008,-0.01617 -0.0234,-0.01192 -0.0499,0.02831 -0.01,0.01457 -0.0119,0.02411 -0.0208,0.03821 0.008,0.02662 0.0193,0.05613 0.0257,0.08179 0.0104,0.04148 0.0159,0.07228 0.0249,0.110736 0.0101,-0.05803 0.0217,-0.139618 0.0237,-0.15947 -0.004,0.07838 -0.009,0.107603 -0.0213,0.168038 -4e-4,-0.0025 -2e-5,-0.0041 -5e-4,-0.0072 -0.007,0.04127 -0.008,0.01795 -0.0184,0.112681 -0.003,0.03002 0.0107,-0.05611 0.0195,-0.10082 0.10787,0.463518 0.12173,0.732211 0.14804,1.156621 0.0167,0.268937 0.0354,0.539111 0.0415,0.799392 0.003,0.117431 0.0155,0.2444 -0.013,0.33477 -0.0673,0.214113 -0.17443,0.391696 -0.26639,0.583107 7.9e-4,0.0017 6e-5,0.0029 0.005,0.0061 0.0505,-0.08585 0.0896,-0.183202 0.17371,-0.235191 0.0489,-0.03008 -0.04,0.116673 -0.0478,0.185818 -0.0167,0.148474 -0.0234,0.306569 -0.025,0.467884 -6.7e-4,0.06482 -0.003,0.127105 -0.004,0.19177 0.004,0.04006 0.009,0.0792 0.0118,0.118642 0.006,0.01556 0.0114,0.02909 0.0181,0.04415 0.11501,0.397466 0.11999,0.403238 0.0484,0.682094 0.0897,0.422171 0.23011,0.883918 0.22648,1.233757 0.031,0.317892 0.0651,0.653695 0.0915,0.966142 0.004,0.05003 0.0579,0.191226 0.0533,0.226062 0.10271,0.274896 0.013,0.436292 0.0632,0.68012 -0.0876,0.584358 -0.0952,1.243551 -0.0349,1.953278 0.13553,0.784701 0.22502,1.533013 0.35621,2.3139231 0.0384,0.1387668 0.0775,0.2778106 0.11571,0.4165402 0.0239,0.086637 0.0474,0.1732575 0.0714,0.2596653 0.0328,0.1181149 0.0657,0.2364659 0.0985,0.3545875 -0.0153,0.036731 -0.0241,0.079298 -0.0374,0.1179461 0.009,0.038296 0.0203,0.078264 0.0249,0.1133505 0.0556,0.4400688 0.002,0.7832737 -0.14463,1.0451188 0.0673,0.8672093 -0.099,1.5397156 -0.0751,2.3717311 0.12665,0.6249502 0.17506,0.7970711 0.22767,1.4275025 0.0121,0.1437424 -0.002,0.2657913 -0.005,0.3973803 -0.0117,0.5604584 -0.0115,1.1312669 -0.11658,1.6118803 -0.0319,0.022306 -0.0293,-0.051522 -0.0439,-0.073828 0.007,0.4548703 0.40986,1.22574893 0.1992,1.50920788 -0.11543,0.35566565 -0.10527,0.398997 -0.34364,0.7128953 -0.0223,0.0294632 -0.015,0.12126917 -0.10434,0.0507015 -0.0886,-0.0695518 -0.12247,-0.2761936 -0.13865,-0.24125832 -0.0993,0.21336952 0.56005,1.06307034 0.21599,1.07493324 0.14144,0.9896576 0.2034,1.1477311 0.11466,2.0732787 -0.0106,0.1104368 -0.0872,0.1616463 -0.12782,0.2450974 -0.0208,0.042667 -0.0355,0.09087 -0.0546,0.1350724 0.0194,0.1688017 0.0373,0.3363543 0.0324,0.4850458 -0.004,0.1177008 -0.0784,0.172923 -0.11521,0.261572 -8e-5,0.00102 1.1e-4,0.00307 -4.1e-4,0.00391 -0.0152,0.1410245 -0.0328,0.2801315 -0.0435,0.4250416 -0.0376,-0.1218082 -0.0831,-0.2489576 -0.12592,-0.3743716 -0.003,0.014102 -0.008,0.026713 -0.0106,0.040852 -0.005,0.016059 -0.006,0.019736 -0.0108,0.034917 0.0568,0.2304358 0.11099,0.4585964 0.1458,0.67225 0.0125,0.077134 -0.0311,0.1072023 -0.0516,0.1561619 -0.0353,0.083511 -0.0771,0.1609724 -0.11668,0.2404831 -0.0743,0.1492182 -0.16685,0.2800363 -0.26628,0.4045182 0.11036,0.1279401 0.0918,0.2106517 0.10632,0.2933035 0.15291,0.9027015 0.13211,0.7734438 -0.027,1.236944 -2.1e-4,0.012855 9.6e-4,0.015589 7.5e-4,0.02372 0.002,0.043794 0.007,0.092589 0.002,0.1298402 -0.0484,0.3024546 -0.0695,0.3437615 -0.1429,0.4460867 -0.0183,-0.104602 -0.0889,-0.4252237 -0.10415,-0.3486481 -0.0639,0.322038 -0.0774,0.5425843 -0.0726,0.7018072 0.002,6.757e-4 0,-0.00135 0.004,1.7e-6 0.15859,0.051581 0.0446,0.2739903 0.0638,0.4086121 0.0134,0.094521 0.0212,0.1957852 0.0451,0.3044824 6e-5,2.902e-4 4.9e-4,0.0017 5.6e-4,0.00202 -0.006,0.2539904 -0.0115,0.5077445 -0.0172,0.7618025 -0.0304,0.07876 -0.0822,0.138441 -0.0916,0.235885 -0.006,0.06172 0.0344,0.161699 0.0456,0.237915 0.14612,0.948681 -0.0473,-0.111083 0.0817,0.409949 0.0161,0.528322 0.0585,0.40395 0.0503,0.86266 0.0539,0.147351 0.0998,0.294263 0.10865,0.380357 0.0188,0.215918 0.009,0.409243 0.014,0.613541 -0.017,0.048 -0.0335,0.09625 -0.0506,0.144299 5.2e-4,0.0046 -1.5e-4,0.01296 3.8e-4,0.01714 -0.007,0.01572 -0.0276,0.06368 -0.0221,0.0468 0.007,-0.02152 0.0136,-0.0429 0.021,-0.06391 -0.0114,-0.155228 0.015,-0.504909 -0.0417,-0.423763 -0.15426,0.22085 -0.13639,0.602328 -0.25054,0.861214 -0.0466,0.105617 -0.18755,0.117983 -0.27297,0.185721 -0.005,0.0069 -0.0302,6.62e-4 -0.0161,0.02108 0.0131,0.01877 0.0357,0.02147 0.0536,0.03233 -0.003,0.03042 -0.007,0.05964 -0.0109,0.08962 -0.86692,-2.220206 -0.50165,-1.144416 -0.33178,0.645026 -0.55562,-0.01395 -0.20224,0.06515 -0.10947,0.02433 0.006,-0.0019 0.008,-0.0074 0.0115,-0.0112 -0.0468,0.07345 -0.0929,0.147284 -0.13972,0.220705 -0.0981,0.167606 -0.26262,0.268431 -0.49517,0.28843 -0.0926,0.134631 -0.25164,0.241137 -0.32792,0.30893 -0.11053,0.09816 -0.23199,0.185209 -0.3433,0.282565 -0.0849,0.0778 -0.0955,0.220126 -0.10034,0.370319 -8e-4,0.04037 0.006,0.08686 -4.9e-4,0.121917 -0.0153,0.07614 -0.0314,0.152081 -0.0529,0.222719 0.0241,0.119008 0.0474,0.237048 0.0711,0.355901 0.0229,0.396941 0.0182,0.263914 0.0276,0.699219 0.002,0.08002 -0.003,0.154307 4.8e-4,0.235925 -0.37893,-1.159694 -0.1953,-0.548661 -0.1168,0.771642 0.008,0.01397 -0.0464,0.09257 -0.10665,0.166024 -4.7e-4,0.04846 0.002,0.04967 -0.002,0.0052 -0.0152,0.01836 -0.0294,0.03551 -0.0444,0.05072 7e-5,0.04957 -0.003,0.08523 -0.006,0.142999 0.004,0.01422 0.008,0.0286 0.0119,0.04284 0.34333,0.888704 -0.35073,0.4622 -1.46073,-0.442826 -0.006,0.04946 -0.0151,0.09581 -0.0182,0.14761 -0.0183,0.311985 -0.0515,0.149083 0.0139,0.40002 -2.2e-4,-0.01913 5.3e-4,-0.07544 7.2e-4,-0.05535 0.0608,1.555305 0.12362,-0.495918 -0.76796,0.864283 -0.0781,0.119187 0.31254,-0.04533 0.57263,0.01145 -0.0175,-0.128257 -0.0256,-0.204205 -0.0835,-0.366451 0.45662,1.051918 0.35315,0.859131 0.19102,1.600805 -0.006,0.04127 -0.01,0.08485 -5e-4,0.121916 0.0555,0.324914 0.0317,0.330623 0.0323,0.671543 -0.0324,0.250494 -0.0261,0.221928 -0.0603,0.411852 0.12194,0.466841 0.13754,0.77045 -0.0143,1.035292 0.0287,0.08359 0.0164,0.107746 -9.8e-4,0.249104 0.002,0.01579 0.002,0.04017 0.004,0.06063 -0.006,0.01532 -0.0157,0.05636 -0.0168,0.04743 -0.046,0.520076 0.0203,0.391598 -0.1539,0.748564 -0.0626,0.102802 -0.12407,0.207127 -0.18756,0.308994 -0.0459,0.07336 -0.10309,0.135487 -0.1399,0.217408 -0.014,0.0312 -0.0205,0.06916 -0.0122,0.119276 0.005,0.02811 0.0256,-0.07244 0.0232,-0.05074 -0.0438,0.354202 -0.041,0.311653 -0.12804,0.554828 -0.0874,0.188423 -0.11849,0.435087 -0.25451,0.578499 0.0186,0.478642 -0.0694,0.840549 -0.391,0.647633 0.0415,-0.06306 0.0807,-0.128731 0.11907,-0.192378 0.0226,-0.07178 0.17985,-0.317851 0.17694,-0.344585 -8.1e-4,-0.011 -0.004,-0.02227 -0.005,-0.03287 -0.0291,0.01412 -0.0615,0.02547 -0.0978,0.03225 -0.0832,0.01546 -0.18863,0.0043 -0.29993,-0.01397 0.009,0.05185 0.0392,0.186463 0.0339,0.179912 -0.0542,-0.06623 -0.10583,-0.133219 -0.15563,-0.199747 -0.12209,-0.02438 -0.24749,-0.05307 -0.36173,-0.06803 0.25266,0.354779 0.44482,0.554113 0.59046,0.641465 -0.33411,0.506559 -0.87968,0.839722 -3.40641,-1.460511 -2.07124,-1.885614 -2.24865,-3.20096 -2.46424,-4.181799 -0.0762,-0.446937 -0.30447,-1.005414 -0.40732,-1.471707 -0.0469,-0.211466 -0.12927,-0.454589 -0.092,-0.597095 0.0682,-0.258701 0.34298,-0.325339 0.40492,-0.589637 0.0261,-0.11159 -0.17113,0.110256 -0.29493,0.122451 -0.0292,0.0028 0.003,-0.06107 0.005,-0.09161 0.10935,-0.605514 0.0631,-1.348881 0.26706,-1.870144 0.0348,0.308119 -0.14286,0.474689 0.10479,0.92463 0.24765,0.449994 0.83728,1.424763 1.24559,1.960425 0.0667,-0.112754 0.13898,-0.220658 0.2082,-0.332051 0.0511,-0.08677 0.0589,-0.102763 0.0599,-0.105415 -0.0316,0.0589 -0.19565,0.389787 0.0605,0.293955 0.0601,-0.02248 -0.0448,-0.194685 -0.0533,-0.28142 -7.8e-4,-0.0082 -2.2e-4,-0.01522 -5.7e-4,-0.02308 -7e-5,9.7e-5 0.003,-0.0046 0.003,-0.0032 0,-2.53e-4 2.8e-4,-0.0017 1.8e-4,-0.002 -4.1e-4,-0.0042 1.4e-4,-0.0076 -2.8e-4,-0.01181 -0.28959,-0.777186 -0.90521,-1.806435 -1.18612,-2.585794 -0.34029,0.151374 -0.23854,-0.258486 -0.2928,0.364305 -0.0738,-0.232198 -0.0266,-0.368725 -0.0648,-0.572706 -0.0125,-0.06987 -0.10203,-0.278925 -0.10377,-0.336781 -0.006,-0.266898 -0.0265,-0.546648 0.0294,-0.75982 0.035,-0.133411 0.16077,-0.181188 0.24094,-0.272069 -0.009,-0.263863 0.45484,-0.03937 0.54493,-0.198782 0.0124,-0.02187 -0.0986,-0.008 -0.14735,-0.06729 -0.0573,-0.06987 -0.008,-0.08434 -0.0103,-0.123881 -0.008,-0.166661 0.0101,-0.216236 -0.008,-0.153549 0.24174,-0.431448 0.18948,-0.56049 0.3605,-0.602177 -8.1e-4,-0.0137 3.7e-4,-0.0054 -0.002,-0.05337 -0.009,-0.447218 0.2568,-0.637801 0.47991,-0.867046 0.0545,-0.312956 0.14729,-0.591462 0.26151,-0.850663 1.8e-4,0.01279 2.1e-4,0.025 1.7e-4,0.03754 0.011,-0.02077 0.0233,-0.04404 0.0285,-0.05798 0.002,-0.0073 0.004,-0.01454 0.006,-0.02176 -0.003,-0.0047 -0.008,-0.011 -0.009,-0.01515 0.006,-0.01518 0.002,-0.04714 0.0188,-0.04284 l 3.8e-4,-0.0013 0.005,5.75e-4 c 5e-5,-0.001 -7.3e-4,-0.004 -3.5e-4,-0.0039 8.5e-4,3.58e-4 -5.3e-4,-0.0012 5.6e-4,-6.75e-4 8.3e-4,-0.0024 0.002,-0.0058 0.003,-0.0086 0.0608,-0.282953 0.11862,-0.560887 0.21107,-0.819055 0.0323,-0.08987 0.007,-0.243742 0.12747,-0.241139 0.008,2.06e-4 0.0165,0.0015 0.0247,0.002 l 0.004,0.0027 c 0.0536,0.03515 0.095,0.06535 0.16016,0.105514 0.008,-0.01862 0.0283,-0.063 0.0396,-0.08895 -0.0696,-0.0097 -0.13638,-0.01534 -0.20015,-0.01788 -0.84038,-0.551994 -0.33242,-0.525652 0.3811,-0.335927 -0.0805,0.14354 -0.1412,0.261308 -0.18114,0.353151 0.0246,0.0034 0.05,0.0084 0.0751,0.01255 0.0199,-0.02717 0.0401,-0.05399 0.0601,-0.08103 -0.009,-0.0066 -0.0198,-0.01539 -0.0287,-0.02181 0.0293,-0.07802 0.0513,-0.162758 0.075,-0.245778 6.2e-4,-0.0045 6.4e-4,-0.01117 5.6e-4,-0.01647 l -1.9e-4,-6.75e-4 c 1.1e-4,-4.58e-4 4.7e-4,-10e-4 3.7e-4,-0.0013 0.003,-0.0046 0.008,-0.0079 0.0104,-0.01251 0.0398,-0.140301 0.0777,-0.282278 0.11623,-0.42369 0.0837,-0.3775607 0.10391,-0.4990334 0.183,-0.6754045 -0.006,-0.048748 -0.006,-0.094343 -0.006,-0.1390634 -9.9e-4,-0.1813993 0.032,-0.3347181 0.0173,-0.5271973 -0.008,-0.100697 -0.0351,-0.2165319 -0.0522,-0.3249157 -0.019,-0.1232948 -0.0381,-0.2470925 -0.0559,-0.3697255 -0.029,-0.1961024 -0.057,-0.3913912 -0.0847,-0.586555 -0.0178,-0.1253221 -0.0543,-0.2653601 -0.053,-0.3749946 0.008,-0.6300712 0.17933,-1.1111418 0.27812,-1.6618923 0.0627,-0.4494685 0.0685,-0.3755054 0.0738,-0.8896265 9.8e-4,-0.089424 -0.0255,-0.2027917 -0.009,-0.278763 0.0423,-0.1920496 0.0926,-0.3780628 0.18489,-0.5238316 0.006,-0.00955 0.1015,-0.076781 0.1754,-0.1317236 -0.0316,-0.1989951 -0.0574,-0.3941379 -0.0699,-0.5779817 -0.0126,-0.183773 0.0341,-0.3184237 0.0422,-0.4850068 0.0124,-0.2517201 0.0126,-0.2353421 5.1e-4,-0.1298085 -0.01,-0.1635273 -0.0257,-0.3321451 -0.0306,-0.4916347 -0.008,-0.2821432 -0.005,-0.5321365 0.0629,-0.7446491 -0.17734,-0.66011351 -0.0924,-1.07117502 0.0346,-1.4728619 0.0151,-0.0480948 0.0519,-0.0777407 0.0502,-0.14034803 -4.3e-4,-0.0136653 -0.0497,-0.0533662 -0.0556,-0.0711942 -0.0256,-0.0774301 -0.0236,-0.13564608 -0.0352,-0.20300511 -0.10136,-0.68090236 -0.13461,-0.97434966 0.18176,-1.35615526 0.0462,-0.0557 0.12415,-0.078077 0.20429,-0.098763 -0.11807,-0.2218415 0.0352,-0.4466596 0.12728,-0.6154569 -0.002,-0.010731 -0.004,-0.022845 -0.006,-0.033531 0.0117,-0.022473 0.0281,-0.053974 0.0363,-0.074454 -2.4e-4,-0.011641 -0.0402,0.022026 -0.0398,0.051384 -0.008,-0.044906 -0.017,-0.090397 -0.0251,-0.1351069 -0.002,-0.07165 0.007,-0.1340135 -0.003,-0.2121993 -0.002,-0.013227 -0.0261,-0.040973 -0.032,-0.05736 -0.10283,-0.2662955 -0.0596,-0.6837184 -0.0561,-0.6965925 0.0403,-0.1549251 0.17494,-0.2212322 0.26229,-0.3320272 0.67477,0.5460208 1.35171,1.0670639 2.02859,1.592382 -0.22765,-0.2868878 -0.45142,-0.572566 -0.61414,-0.8372072 -0.10036,-0.16332 -0.17634,-0.3145266 -0.24348,-0.4607491 -0.22971,-0.3902546 -0.46464,-0.7835515 -0.64554,-1.147612 -0.12179,-0.2444025 -0.14803,-0.4286335 -0.22163,-0.6426245 -0.25288,-1.040115 -0.11878,-1.7744861 0.22701,-2.3011498 0.065,-0.057345 0.12461,-0.1204794 0.19475,-0.1725757 0.0112,-0.0083 0.0246,-0.014026 0.0373,-0.021072 l 7.5e-4,3e-7 c -0.0249,0.027249 -0.0345,0.081038 -0.0372,0.144966 0.0503,-0.041665 0.15697,-0.017967 0.33943,0.071978 6e-5,-0.00516 -4e-5,-0.010932 -2e-5,-0.015825 0.006,-0.058484 0.0234,-0.1063452 0.0394,-0.1555092 -0.014,-0.046188 -0.0294,-0.093563 -0.0441,-0.1403956 0.009,-0.1264611 -0.01,-0.2782063 0.007,-0.3973759 -0.054,-0.1796645 -0.0447,-0.1925158 0.0575,-0.1377097 0.0373,-0.046213 0.087,-0.080661 0.14215,-0.1093339 0.004,0.041547 0.015,0.088283 0.022,0.1317989 0.0182,-0.00458 0.0369,-0.013221 0.0563,-0.023699 -0.0247,-0.045862 -0.0409,-0.083331 -0.0589,-0.1226002 0.0126,-0.00641 0.0237,-0.014276 0.0358,-0.021069 0.0194,0.03763 0.0397,0.076967 0.0609,0.1166795 0.0895,-0.068658 0.18866,-0.2088095 0.29057,-0.4750165 -0.11098,-0.1054181 -0.22227,-0.2084408 -0.33334,-0.3131707 -0.0372,0.012195 -0.0915,0.02306 -0.11513,0.032895 -0.15784,0.065524 -0.0764,0.2978368 0.0769,0.6003922 6.5e-4,-3.372e-4 0.001,6.754e-4 0.002,9e-7 0.0566,-0.037658 0.14817,-0.051465 0.11824,-0.024334 -0.0278,0.02528 -0.0652,0.040869 -0.0998,0.059267 -0.006,-0.011475 -0.0131,-0.024097 -0.0185,-0.03493 -0.014,0.00958 -0.0204,0.021339 -0.0263,0.034256 -0.007,-0.015254 -0.0176,-0.03412 -0.0227,-0.04746 -0.14312,-0.3762787 -0.23728,-0.6932902 -0.25342,-0.9438215 -0.0984,-0.0917 -0.19627,-0.1862252 -0.29475,-0.2769092 -0.10568,-0.313211 -0.27781,-0.675277 -0.31646,-0.93922 -0.0587,-0.40148 0.12285,-0.555845 0.18951,-0.838833 0.0228,-0.09685 -0.0148,-0.245109 0.013,-0.337402 0.0412,-0.136539 0.10452,-0.252723 0.15627,-0.379523 0.0269,0.01806 0.0548,0.03762 0.0823,0.05663 0.005,-0.04286 0.003,-0.0885 0.01,-0.130476 0.038,-0.07288 0.0158,-0.16489 0.0401,-0.247771 0.002,-0.0093 0.0314,0.0679 0.0309,0.05602 -0.008,-0.144338 -0.11728,-0.368865 -0.0801,-0.477813 -0.0104,-0.08298 -0.0264,-0.170505 -0.0387,-0.255065 0.008,0.0077 0.0154,0.01637 0.0232,0.02305 -0.006,-0.01164 -0.0121,-0.02268 -0.0181,-0.03361 -0.003,-0.0021 -0.008,-0.0044 -0.0106,-0.0065 7.1e-4,0.0039 -7.3e-4,0.0055 -4.5e-4,0.0092 -0.009,-0.0089 -0.016,-0.01742 -0.0243,-0.02704 0.008,0.0056 0.0166,0.01064 0.0241,0.01577 -5.2e-4,-0.0046 -5.6e-4,-0.0088 -6.5e-4,-0.01313 -0.006,-0.01077 -0.0124,-0.02349 -0.0181,-0.03361 l 3.8e-4,-0.0014 c -0.0225,-0.01408 -0.0492,-0.03144 -0.0682,-0.04288 0.016,0.02187 0.0331,0.04253 0.0503,0.06264 -0.19451,-0.13677 -0.17547,-0.139737 -0.0459,-0.06264 -0.18341,-0.249885 -0.2686,-0.561619 0.0695,0.04486 0.005,0.0028 0.0109,0.0065 0.0157,0.0092 -0.006,-0.04606 -0.0126,-0.09308 -0.0125,-0.134443 1.6e-4,-0.03149 0.0164,-0.09829 0.057,-0.04216 0.026,0.03588 0.0407,0.07167 0.0516,0.106786 0.0492,0.02834 0.0974,0.0542 0.14644,0.08245 0.0552,-0.04346 0.10803,-0.08905 0.0928,-0.04478 -0.0116,0.035 -0.0262,0.05126 -0.0398,0.07511 0.23513,0.134023 0.4686,0.264541 0.70147,0.393728 0.37643,0.01657 0.43914,0.05866 0.24749,0.04888 0.0586,0.0049 0.11876,0.01217 0.18882,0.03237 0.0848,0.02444 0.17763,0.06037 0.26999,0.09567 0.051,5.35e-4 0.12222,0.0039 0.1751,0.0067 -0.0395,-0.183896 -0.072,-0.362367 -0.10041,-0.537793 -0.0962,-0.346792 -0.19133,-0.692828 -0.29002,-1.041369 -0.067,-0.24671 -0.12133,-0.483269 -0.19903,-0.737522 -0.129,-0.382896 -0.27125,-0.766853 -0.25947,-1.047267 7.2e-4,-0.01694 0.0272,-0.11237 0.0584,-0.210857 -2.4e-4,-0.0021 -4.8e-4,-0.0044 -1.5e-4,-0.0059 -0.06,-0.05691 -0.11956,-0.114751 -0.17937,-0.172076 0.002,0.03999 0.007,0.08305 0.007,0.121248 -1.6e-4,0.07285 -0.10068,-0.120394 -0.19826,-0.305861 -0.0857,-0.08311 -0.17198,-0.165224 -0.2571,-0.249218 -0.3231,-0.318876 -0.26891,-0.567663 -0.33832,-0.807426 -0.0906,-0.311473 -0.0925,-0.556833 -0.1393,-0.835683 -0.0793,-0.642583 -0.10159,-0.625871 -0.0492,-1.237635 0.009,-0.109233 0.0383,-0.202052 0.0578,-0.302457 0.0571,0.23798 0.17746,0.722133 0.16348,0.559572 -0.0292,-0.339866 -0.14949,-0.750234 -0.22424,-1.12568 0.0648,-0.3079 0.0499,-0.683995 0.0346,-1.059665 -0.15386,-0.321514 -0.17891,-0.588033 -0.0905,-0.838954 -0.002,-0.0037 -0.005,-0.0089 -0.007,-0.01323 8.9e-4,-0.0022 0.005,-0.0023 0.005,-0.0046 -0.009,-0.01623 -0.0165,-0.03149 -0.0181,-0.03361 -0.079,-0.174796 -0.1075,-0.319079 -0.15685,-0.475207 -0.10451,-0.401676 -0.21587,-0.808095 -0.33451,-1.219973 -0.54389,-1.924461 0.1823,-1.838117 1.23795,-1.056506 0.0422,-0.215125 0.10593,-0.355123 0.21565,-0.43156 -0.002,-0.02703 -0.009,-0.05619 -0.0105,-0.08238 -0.005,-0.104573 0.0218,-0.181707 0.041,-0.265562 -0.003,-0.111529 -0.005,-0.222194 -0.009,-0.334118 -8e-5,-0.0011 3e-5,-5.16e-4 3.7e-4,-0.0013 -0.0454,-0.254194 -0.0853,-0.516468 -0.0277,-0.284044 0.0263,-0.02113 0.004,-0.0082 0.0505,0.137095 l -0.0776,-0.616204 c 0.0168,-0.102953 0.0614,-0.180508 0.11375,-0.251032 6e-4,-0.02328 0.001,-0.04726 0.002,-0.07051 -0.0904,-0.329642 -0.13657,-0.612112 -0.0578,-0.826415 0.0163,-0.04419 0.0406,-0.08 0.0608,-0.120575 -0.0148,-0.106426 -0.003,-0.205201 0.0176,-0.299839 -9.4e-4,-0.530435 -0.0207,-1.076442 -0.0633,-1.640952 -0.0318,-0.105023 -0.0249,-0.184497 -0.0482,-0.284064 -0.0431,-0.408974 -0.15347,-0.87771 -0.1755,-1.26866 -0.0191,-0.339768 -0.0103,-0.656492 0.006,-0.9661 0.002,-0.02898 0.0123,-0.08814 0.0286,-0.0995 -0.003,-0.01417 -0.007,-0.02744 -0.01,-0.04149 -0.0559,-0.287016 -0.0202,-0.399733 0.037,-0.527189 5.1e-4,-0.03252 0.005,-0.06796 0.009,-0.100811 0.003,0.01177 0.006,0.02128 0.0135,0.03763 0.008,-0.01619 0.0114,-0.02942 0.0197,-0.04744 -8.3e-4,0.0051 -0.002,0.01346 -5.2e-4,0.01913 0.013,0.04261 0.0278,0.08641 0.041,0.129193 0.018,0.02936 0.0296,0.05315 0.0545,0.08834 -0.0357,-0.124655 -0.0719,-0.249523 -0.10682,-0.373766 -0.008,0.0427 -0.0149,0.08573 -0.0195,0.127182 -0.0187,-0.06311 -0.008,-0.101291 0.0133,-0.131139 4e-5,-2.46e-4 6.6e-4,-3.37e-4 5.7e-4,-6.75e-4 0.002,-0.003 -0.003,-0.01279 1.7e-4,-0.01515 0.002,0.0057 0.003,0.01198 0.006,0.01782 0.002,-0.01178 0.002,-0.02436 0.005,-0.03623 -0.004,0.0028 -0.008,0.0056 -0.0108,0.0086 -0.013,-0.04668 -0.0272,-0.09399 -0.0388,-0.139729 -0.006,-0.0226 -0.0101,-0.04446 -0.0155,-0.0665 -0.3377,-0.761187 -0.27211,-1.017591 -0.0289,-1.201382 -0.0847,0.231394 -0.0581,0.515803 0.17225,0.954317 0.007,-0.07486 0.0201,-0.144788 0.02,-0.225371 -4.5e-4,-0.224382 -0.0126,-0.39312 -0.0262,-0.589165 -0.0398,-0.05973 -0.0783,-0.118651 -0.11743,-0.177985 -0.0138,0.0091 -0.0294,0.01689 -0.0424,0.02634 0.007,-0.01842 0.0155,-0.03555 0.0239,-0.05337 0.006,0.0087 0.0128,0.01796 0.0183,0.02636 0.0305,-0.02013 0.0603,-0.04421 0.0948,-0.06388 -0.007,-0.04125 -0.0129,-0.08201 -0.0196,-0.123228 -0.0372,0.04942 -0.0686,0.100964 -0.0946,0.154166 -0.0774,-0.117587 -0.15582,-0.236386 -0.22935,-0.352009 0.0317,-0.06141 0.0336,-0.08373 0.0831,-0.12188 0.0181,-0.01376 0.0577,-0.0068 0.0614,-0.03424 0.0253,-0.220676 -0.0881,-0.57659 -0.0945,-0.819187 0.0172,-0.05307 0.0335,-0.106982 0.0515,-0.159456 -0.003,-0.02227 -0.006,-0.04662 -0.008,-0.07184 l -0.1115,-0.401381 -0.16184,-0.582631 -0.0989,-0.355907 -0.16075,-0.578675 -0.12468,-0.448838 -0.2748,-0.989287 -0.30757,-1.107263 -0.34712,-1.249627 -0.17356,-0.624812 -0.15287,-0.550337 c -0.0622,-0.22397 -0.12434,-0.447619 -0.18656,-0.671606 -0.0721,-0.259082 -0.14407,-0.518177 -0.21585,-0.777063 -0.13967,-0.502702 -0.28066,-1.006322 -0.41889,-1.507987 -0.0733,-0.269414 -0.14601,-0.537769 -0.23544,-0.818594 -0.0604,-0.222957 -0.0739,-0.278369 -0.0879,-0.355899 l -1.9e-4,-6.75e-4 c -0.18543,-0.40384 -0.29016,-0.661843 -0.34088,-0.798206 9.4e-4,0.002 -0.0181,-0.03945 -0.013,-0.02835 -0.0545,-0.145724 -0.13123,-0.307198 -0.16305,-0.436987 -0.15497,-0.622996 -0.0631,-0.988429 0.18444,-1.112324 0.0126,-0.01545 0.0202,-0.06985 0.0334,-0.07973 -0.10626,-0.424975 -0.0735,-0.306813 0.12641,-0.908057 0.0139,-0.04167 0.0423,-0.06995 0.0718,-0.09684 -0.039,-0.107071 -0.0242,-0.179506 -0.0449,-0.27482 -0.0149,-0.07433 -0.0229,-0.142954 -0.031,-0.21156 -0.36112,-0.469539 -0.67302,-0.931435 -0.97025,-1.403443 -0.12067,-0.230541 -0.17905,-0.343279 -0.22703,-0.443612 -0.17439,-0.280535 -0.34485,-0.558777 -0.19114,-0.314428 -0.60034,-1.071591 -1.24929,-2.279024 -0.59717,-2.449785 0.19519,-0.0511 0.52916,0.0746 0.89532,0.241582 -0.0912,-0.123964 -0.13237,-0.226325 -0.14673,-0.312428 -0.0983,-0.179856 -0.15378,-0.360641 -0.1353,-0.516055 0.0146,-0.124495 0.0111,-0.163208 0.004,-0.208242 -0.16022,-0.167239 -0.2801,-0.343187 -0.3347,-0.491766 -0.13875,-0.238266 0.0505,-0.507556 -0.0285,-0.73678 1.8e-4,0.02921 0.007,0.04196 0.006,0.07775 -0.003,0.04802 -0.0421,-0.05653 -0.0739,-0.163474 -0.007,0.0167 -0.0191,-0.01243 -0.0302,-0.06131 -0.0196,-0.01759 -0.0435,-0.03477 -0.0693,-0.05215 -0.0369,0.007 -0.0658,0.02269 -0.0725,0.05994 0.002,-0.02389 0.008,-0.0259 0.009,-0.04021 -0.0408,0.03079 -0.11935,0.05467 -0.27632,0.0526 -0.0483,-5.91e-4 -0.0414,-0.129486 -0.0315,-0.168726 0.004,-0.0142 0.0128,-0.02764 0.023,-0.04085 -0.13392,-0.0139 -0.10646,0.09848 -0.0684,0.269505 -0.0155,-0.04523 -0.0462,-0.101804 -0.0454,-0.134461 0.005,-0.153858 0.0207,-0.24043 0.1929,-0.208164 0.003,6.77e-4 0.007,0.0015 0.0101,0.002 l -1.8e-4,-6.75e-4 c 0.0231,-0.01089 0.0289,-0.0012 0.10638,0.01454 -0.002,0.0029 -6.6e-4,0.0098 0.002,0.01772 0.004,0.002 0.007,0.004 0.0104,0.0059 0.005,0.0031 0.01,0.0061 0.015,0.0092 0.01,-0.0081 0.0189,-0.01684 0.03,-0.02369 h 7.5e-4 c 0.0328,-0.02129 0.0712,-0.0362 0.12829,-0.03026 -0.0125,-0.180767 0.008,-0.311491 0.13142,0.0047 0.0295,2.49e-4 0.0287,9.57e-4 0.0521,0.0033 -0.0118,-6.12e-4 0.0492,0.0054 0.0358,0.0026 0.007,-0.0015 0.032,-0.007 0.0547,-0.01118 0.0146,-0.04748 0.0344,-0.02664 0.15933,-0.08955 0.0122,0.0031 0.0129,0.0027 0.0234,0.0053 0.0241,-0.03334 0.0485,-0.04742 0.11823,-0.04542 0.0212,-0.02198 0.0485,-0.03359 0.0886,-0.04411 0.0285,-0.0075 0.049,-0.02435 0.0872,-0.02039 0.002,3.38e-4 0.003,10e-4 0.005,6.77e-4 0.006,-0.01248 0.0111,-0.02731 0.0245,-0.03296 0.0297,-0.01266 0.063,-0.02037 0.0976,-0.02764 1.9e-4,-6.75e-4 0.001,-0.0013 0.002,-0.0019 0.003,-0.0066 0.007,-0.01289 0.0108,-0.01909 0.006,-0.0022 0.0132,-0.003 -1.1e-4,0.01309 0.0202,-0.0044 0.0403,-0.0091 0.0585,-0.01579 -0.0119,-0.0035 -0.0687,-0.0051 -0.0577,-2.5e-5 0.004,-0.0077 0.009,-0.01488 0.0135,-0.02241 0.055,-0.08186 0.0467,-0.05801 0.15329,-0.127124 0.006,-6.72e-4 0.0134,-0.0045 0.0221,-0.0072 0.0244,-0.01852 0.0592,-0.02937 0.0956,-0.03752 0.0316,-0.121495 0.10076,-0.234538 0.1807,-0.125793 0.004,-0.005 0.006,-0.01019 0.0104,-0.01514 0.003,-0.0197 0.0118,-0.04403 0.0188,-0.05335 0.0165,-0.02211 0.0393,-0.03854 0.0625,-0.05401 1.7e-4,-6.89e-4 1.4e-4,-7.12e-4 3.8e-4,-0.0014 0.001,-3.37e-4 0.003,6.76e-4 0.005,5.76e-4 0.004,-0.01032 0.0114,-0.02506 0.0181,-0.03227 -0.005,0.01 -0.01,0.02155 -0.0146,0.03163 0.0205,-0.01374 0.0411,-0.02715 0.0577,-0.04479 0.008,-0.0092 -0.0327,0.0019 -0.0417,0.01052 0.004,-0.0068 0.004,-0.01633 0.007,-0.02307 0.0255,-0.01309 0.0515,-0.02527 0.0771,-0.03819 0.0133,-0.04374 0.0407,-0.08168 0.0588,-0.112005 0.0538,-0.02464 0.10425,-0.05281 0.16153,-0.07374 0.0583,-0.02124 0.001,0.01765 0.0316,0.02701 0.0133,0.0041 0.004,-0.0195 0.0179,-0.01449 0.008,0.0024 0.003,0.01495 0.005,0.02241 0.0115,-0.03177 0.0229,-0.06312 0.0343,-0.09488 0.026,-0.0172 0.0493,-0.03794 0.0784,-0.05203 0.0158,-0.0078 0.0388,-0.0075 0.0572,-0.0125 0.0338,-0.0088 0.0666,-0.0191 0.0994,-0.02895 0.0861,-0.02584 0.1681,-0.05561 0.25346,-0.08227 0.002,-0.04647 -2.8e-4,-0.108134 -0.004,-0.189796 -0.003,-0.05128 -0.0504,0.02689 -0.0846,0.06125 0.006,-0.07304 -0.006,-0.161589 -1.1e-4,-0.234605 l 5.6e-4,-6.75e-4 c 0.0134,-0.163902 0.0928,-0.233263 0.20789,-0.233196 0.0233,-0.526533 1.05693,0.264266 1.36179,1.11299 z m 7.2574,36.458035 -9.3e-4,-6.75e-4 1.8e-4,6.75e-4 c 2.2e-4,6.95e-4 2.2e-4,0.0012 5.7e-4,0.002 2e-5,-7.96e-4 4.6e-4,-10e-4 1.8e-4,-0.002 z m -1.8e-4,0.002 c -1.3e-4,7.15e-4 3.9e-4,0.0019 0,0.0027 0.018,0.05793 0.0396,0.131982 0.0553,0.180599 -0.0152,-0.0603 -0.0352,-0.122536 -0.0553,-0.183221 z m -6.45607,-33.581124 -0.27153,-0.974803 c -0.0255,0.0263 -0.0609,0.04349 -0.074,0.08102 -0.0101,0.02839 -0.0153,0.06153 -0.0215,0.09357 0.0964,0.128093 0.16981,0.258416 0.20524,0.375725 0.0199,0.06614 0.0225,0.125379 0.0158,0.180573 0.0573,0.07554 0.10852,0.15865 0.14596,0.243896 z m 3.00156,10.810941 c -0.0372,0.157359 -0.0549,0.179709 -0.11377,0.216761 0.0929,0.08323 0.1728,0.163109 0.24009,0.238009 z m -0.0385,0.606267 c -9.9e-4,-0.0037 -0.005,-0.0068 -0.0111,-0.0059 -0.0138,8.71e-4 -0.0251,0.0041 -0.0365,0.0079 0.006,0.01566 0.01,0.03 0.0158,0.0462 0.0211,-0.01106 0.0366,-0.03676 0.032,-0.04809 z m -0.23737,-0.678221 c -0.001,0.003 -0.004,0.0071 -0.004,0.02112 -0.002,0.01768 -0.003,0.01957 -0.005,0.03623 0.003,0.01282 0.008,0.02669 0.011,0.03955 9.5e-4,-0.05264 0.002,-0.09281 -0.002,-0.09688 z m 0.88006,3.923446 c -0.008,-0.03366 -0.0206,-0.07283 -0.0379,-0.117986 -0.085,-0.06925 -0.15575,-0.124595 -0.23806,-0.191226 0.0428,0.154415 0.0856,0.308748 0.1287,0.463338 0.12609,0.04081 0.18405,2.9e-5 0.14725,-0.154143 z m -0.62916,-2.070212 -9.3e-4,-6.75e-4 c 3e-5,8.33e-4 -3.8e-4,0.0014 0,0.0027 1.8e-4,-6.74e-4 8.4e-4,-0.001 9.3e-4,-0.002 z m -2.2e-4,0.0046 -9.4e-4,-6.75e-4 c 1e-4,8.8e-4 6e-4,0.0018 7.5e-4,0.0027 1.3e-4,-7.15e-4 0,-0.0013 1.9e-4,-0.002 z m -1.9e-4,0.002 c -0.008,0.02559 -0.0147,0.05056 -0.0219,0.07644 -0.005,0.0195 0.0257,-0.02457 0.0261,-0.0481 2e-4,-0.0087 -0.003,-0.0191 -0.004,-0.02824 z m -3.51047,-11.690306 -0.001,-0.0014 c -3e-5,2.46e-4 3.8e-4,0.0011 3.8e-4,0.0014 z m -7.5e-4,0 c -0.006,0.0019 -0.01,-4.43e-4 -0.015,-0.0013 0.006,0.003 0.0104,0.0059 0.0155,0.0085 -3.7e-4,-0.0022 -6.8e-4,-0.0051 -5.1e-4,-0.0072 z m 0.36826,1.904686 -0.001,-0.0014 c 5.4e-4,0.0012 5e-4,0.002 7.5e-4,0.0027 1.8e-4,-4.12e-4 8e-5,-0.001 3.7e-4,-0.0014 z m -0.0344,-0.03693 c -0.003,-0.003 -0.004,-0.006 -0.008,-0.0092 -0.007,0.02607 -0.0302,0.04015 -0.0771,0.03819 -0.001,0.01947 -0.002,0.04655 0.004,0.07314 0.0178,0.01391 0.0354,0.02768 0.0534,0.04221 0.006,-0.0062 0.0126,-0.01255 0.0179,-0.01976 -0.005,-0.01397 0.001,-0.07231 0.009,-0.124552 z m -0.71213,-2.49266 -9.3e-4,-6.75e-4 c 3e-5,2.87e-4 3.4e-4,0.0011 3.7e-4,0.0014 z m -5.6e-4,6.75e-4 c 5e-4,0.0045 9.2e-4,0.01005 0.001,0.01444 8.8e-4,4.93e-4 0.002,6.75e-4 0.003,0.0014 -6.6e-4,-0.0064 -0.002,-0.01168 -0.004,-0.01579 z m 0.18873,1.792578 c -0.0588,-0.08847 -0.11051,-0.174952 -0.16956,-0.281468 -0.009,-0.01664 -0.0165,-0.03206 -0.0234,-0.04748 -0.10721,-0.09751 -0.21948,-0.193968 -0.32291,-0.294058 -0.0389,-0.01665 -0.0876,-0.03416 -0.15172,-0.05147 -0.039,-0.01054 -0.0757,-0.01611 -0.10748,-0.01586 -0.0138,0.02922 -0.0297,0.05666 -0.0453,0.08434 0.25258,0.160906 0.54368,0.397537 0.82037,0.605971 z m -0.34439,-0.505608 c -0.0436,-0.04031 -0.0799,-0.07245 -0.13639,-0.101539 0.0836,0.06139 0.10949,0.08033 0.13639,0.101539 z m 7.24362,26.603254 c -0.0128,-0.03917 -0.0223,-0.06293 -0.0335,-0.09689 -0.003,0.0025 -0.004,0.0059 -0.009,0.0086 0.002,0.02274 0.005,0.04389 0.005,0.06655 0.009,0.03578 0.0168,0.07138 0.025,0.103397 0.005,-0.03003 0.009,-0.05642 0.0107,-0.08239 z m -0.0416,-0.120622 c -0.002,-0.0052 -0.006,-0.01191 -0.009,-0.01714 7.6e-4,0.0095 0.003,0.02021 0.004,0.02966 9.6e-4,-0.0046 0.002,-0.0079 0.005,-0.01255 z m -0.007,0.03559 c -4.7e-4,0.001 1.2e-4,0.0031 -4.1e-4,0.0039 6.9e-4,0.0027 -2.8e-4,0.0044 3.2e-4,0.0065 6.9e-4,-0.0029 9.2e-4,-0.0048 10e-4,-0.0072 l -1.9e-4,-6.75e-4 z m -7.49674,-26.948684 c -3.9e-4,-5.5e-4 -0.004,-0.0047 -0.007,-0.008 h -7.5e-4 l 0.006,0.0073 z m 0.22576,0.857466 c -0.028,-0.0091 -0.0501,-0.01162 -0.0671,-0.0073 0.006,0.0041 0.0108,0.0083 0.0167,0.01256 0.0161,-0.0038 0.0336,-0.0047 0.0506,-0.0046 z m -0.36017,-1.0282 c -0.0258,-0.03169 -0.10781,-0.133567 -0.14027,-0.173382 -0.006,-0.0027 -0.0119,-0.0057 -0.0177,-0.0086 0.0516,0.06028 0.0936,0.109328 0.15691,0.183272 2e-4,-3.95e-4 4.6e-4,-10e-4 3.7e-4,-0.0014 z m -0.0208,0.04086 c -0.11615,-0.07196 -0.23157,-0.143078 -0.33566,-0.192577 -0.0657,-0.03128 0.16302,0.137694 0.23202,0.174724 0.0352,0.01891 0.0683,0.03426 0.10018,0.04749 8.1e-4,-0.0092 6.6e-4,-0.02051 0.003,-0.02965 z m -1.12674,-3.419413 c -0.004,0.0041 -0.008,0.0075 -0.0135,0.0092 0.002,-0.0015 0.007,-0.0054 0.0135,-0.0092 z m -0.55418,-0.439799 c -8.5e-4,-3.48e-4 -7.5e-4,0 -0.002,-6.76e-4 -9.3e-4,0.002 -0.004,0.0033 -0.004,0.0053 0.002,-0.0017 0.003,-0.0025 0.006,-0.0039 z m -0.0551,0.198998 c 0.001,-3.37e-4 -1.2e-4,-0.0017 -0.004,-0.0027 -0.0287,-0.0097 -0.0814,-0.02136 -0.12393,-0.02246 -0.005,0.0078 -0.0127,0.01744 -0.0201,0.0303 0.0724,-0.008 0.13936,-0.0037 0.14603,-0.0059 z m 9.75066,35.494332 c -0.004,-0.0037 -0.007,-0.0098 -0.0106,-0.01185 2.6e-4,-0.0031 1.6e-4,-0.0061 4.5e-4,-0.0091 0.003,0.0059 0.008,0.01617 0.0102,0.02109 z m -9.92356,-35.51154 -9.4e-4,-6.75e-4 c -0.008,0.0036 -0.0132,0.0085 -0.0146,0.01578 -8.6e-4,0.005 -4.8e-4,0.01039 -7.3e-4,0.01582 0.007,-0.0013 0.0145,-0.0028 0.0215,-0.004 -0.002,-0.0106 -0.006,-0.02018 -0.005,-0.02696 z m 0.008,0.05667 h -7.5e-4 c -0.005,0.0081 -0.009,0.01623 -0.0148,0.02569 -0.002,0.0049 0.026,0.191462 0.024,0.102162 -9.9e-4,-0.05636 -0.004,-0.09763 -0.008,-0.127839 z m -0.88458,0.831282 c -0.004,-0.0024 -0.008,-0.0043 -0.0113,-0.0066 0.005,0.0038 0.006,0.0046 0.0119,0.0086 z m -0.014,-0.0085 c -0.0756,-0.05467 -0.12743,-0.093 -0.17517,-0.127972 -0.005,-0.002 -0.0115,-0.0069 -0.0163,-0.0086 2.9e-4,0.0013 -0.002,0.0031 -0.002,0.0045 0.0647,0.04424 0.12972,0.0892 0.19379,0.131884 z m 1.54154,5.949518 c -0.0605,-0.06326 -0.12017,-0.126541 -0.18195,-0.189218 -0.32706,-0.331729 -0.11662,0.1536 0.14965,0.65447 -0.002,-0.16596 0.0108,-0.319071 0.0323,-0.465239 z m -1.73516,-6.086017 c -7.1e-4,-0.0029 -0.001,-0.0053 -0.004,-0.008 -0.0103,-0.0076 -0.031,-0.02241 -0.0402,-0.029 3.4e-4,0.0039 6.5e-4,0.0091 6.5e-4,0.01313 0.009,0.0065 0.0189,0.0128 0.0279,0.01908 0.005,0.0017 0.007,10e-4 0.0124,0.0026 z m 1.91149,7.162907 c -0.006,-0.01603 -0.0719,-0.01858 -0.08,0.0013 -0.007,0.01575 -0.005,0.04931 5.7e-4,0.08895 0.0308,-0.02611 0.0602,-0.05321 0.0795,-0.09025 z m -2.05063,-7.263796 c -0.0226,-0.01415 -0.039,-0.02367 -0.0408,-0.0152 0.01,0.0061 0.0196,0.01253 0.0294,0.01908 0.003,-0.0017 0.008,-0.0024 0.0113,-0.0039 z m -0.0737,-0.09691 c -0.003,-10e-4 -0.006,-0.0015 -0.0119,-0.0033 -8.5e-4,10e-4 -0.004,-3.39e-4 -0.006,6.73e-4 0.006,9.81e-4 0.0107,0.0018 0.0175,0.0026 z m -0.21805,-0.02711 -9.4e-4,-6.76e-4 c 8.4e-4,-10e-4 -0.008,0.0046 -0.0216,0.01448 0.008,-0.0049 0.0221,-0.0131 0.0225,-0.01383 z m -0.0225,0.01383 -9.4e-4,-6.75e-4 c -2.7e-4,7e-5 -9e-5,10e-4 -3.7e-4,0.0013 2.8e-4,-3.37e-4 5.6e-4,-6.74e-4 0.001,-6.74e-4 z m -0.001,6.74e-4 c -0.006,0.0033 -0.006,0.0037 -0.0168,0.01055 0.009,-0.0042 0.0105,-0.0046 0.0168,-0.0079 6.5e-4,-3.37e-4 -1.9e-4,-0.002 0,-0.0027 z m 10.87656,39.076515 c -0.005,0.0051 -0.009,0.0098 -0.0124,0.01582 -0.002,0.0031 1.9e-4,0.01994 -3.5e-4,0.01451 0.002,-0.01191 0.008,-0.02065 0.0128,-0.03033 z m -9.92128,-35.311198 c -0.26271,-0.608115 -0.16427,0.682529 -0.0614,1.192118 -0.0217,-0.15475 0.10854,-0.21955 0.0614,-1.192118 z m 9.69045,34.935468 c -0.0362,-0.0082 -0.0814,-0.01728 -0.1252,-0.02707 0.005,0.0072 0.01,0.01512 0.015,0.02241 0.0405,0.0054 0.078,0.0076 0.11021,0.0047 z m 0.1526,1.507218 c -0.0177,0.0184 -0.0379,0.03598 -0.0585,0.05269 0.002,0.0034 0.004,0.0051 0.006,0.01191 0.0146,-0.006 0.0265,-0.01518 0.0484,-0.0125 0.002,3.39e-4 2.5e-4,0.0036 0.004,0.0054 9.9e-4,-0.01316 -9.3e-4,-0.03841 1.7e-4,-0.05732 z m -5.29236,-18.412944 -9.4e-4,-6.75e-4 -9.3e-4,-6.75e-4 c 0.0143,-0.0522 -0.0428,0.05532 -0.0579,0.133755 0.002,0.0053 0.004,0.01002 0.008,0.01657 0.0163,-0.05026 0.037,-0.09696 0.0515,-0.148914 z m -2.93708,-10.431359 c -0.003,-0.0047 -0.005,-0.0097 -0.008,-0.01448 0.002,0.0044 0.004,0.0092 0.008,0.01448 z m -0.011,-0.02109 c -0.004,-0.0055 -0.007,-0.01137 -0.0106,-0.01714 0.003,0.0055 0.006,0.0111 0.009,0.01647 z m 2.77854,10.257969 h -7.5e-4 c -0.0134,-0.03761 0.0162,0.07028 0.0242,0.105441 5.8e-4,0.0048 0.0128,0.03193 0.0161,0.04218 -0.0101,-0.05002 -0.0237,-0.100357 -0.0395,-0.147604 z m 5.90315,21.47495 c -0.0146,0.01143 -0.0285,0.02312 -0.0393,0.03227 2e-4,0.01916 -2.8e-4,0.03778 -3.5e-4,0.05666 0.0216,-0.01293 0.0394,-0.0291 0.0396,-0.0415 5.7e-4,-0.01009 -4.2e-4,-0.03466 0,-0.04743 z m -5.39252,-17.657766 c -0.0603,-0.126204 -0.13084,-0.25825 -0.19776,-0.388237 0.007,0.01647 0.0108,0.03061 0.0183,0.04747 0.0465,0.105751 0.23171,0.450018 0.17946,0.340782 z m 5.25641,18.951989 -9.3e-4,-6.75e-4 -9.4e-4,-6.75e-4 c -0.009,-0.0357 -0.0235,-0.06951 -0.047,-0.100856 0.0227,0.07078 0.0479,0.152031 0.082,0.250455 0.003,0.0074 0.008,0.01512 0.0108,0.02305 -0.0234,-0.05364 -0.0295,-0.114192 -0.0438,-0.171282 z m 1.2819,7.6726991 -9.3e-4,-6.752e-4 -9.4e-4,-6.752e-4 c -0.003,-0.018357 -0.0102,-0.034117 -0.0212,-0.047463 0.006,0.049153 0.008,0.094708 0.0125,0.1423389 0.008,-0.033643 0.0141,-0.065239 0.0106,-0.09356 z m -1.68712,3.1552475 c 0.008,0.038941 0.0258,0.1285985 0.0504,0.2656014 0.001,-0.016431 -6.9e-4,-0.034538 7.2e-4,-0.050072 -0.036,-0.1521002 -0.0452,-0.1905185 -0.0511,-0.2155299 z m 0.0885,1.2686263 -9.4e-4,-6.752e-4 -9.3e-4,-6.753e-4 c -0.005,0.026528 -0.0105,0.044746 -0.0184,0.1232281 -0.004,0.03741 0.0217,-0.062648 0.0217,-0.1034543 -6e-5,-0.0056 -0.002,-0.013025 -0.001,-0.01839 z m -5.50828,-18.9507789 c -0.005,-0.01529 -0.01,-0.03071 -0.0143,-0.04617 -0.001,0.0057 -0.006,0.0091 -0.008,0.01451 0.007,0.01073 0.0137,0.02271 0.0194,0.03031 z m 6.84933,25.6890366 c -0.004,0.044412 -0.009,0.08833 -0.0155,0.1311349 8.1e-4,0.013665 0.002,0.026825 0.004,0.039536 0.0112,-0.037485 0.0216,-0.075706 0.0195,-0.1245468 -7.1e-4,-0.00931 -0.004,-0.030791 -0.008,-0.046138 z m -6.40526,-22.3272586 -0.003,-0.002 c -0.0234,-0.06154 -0.0469,-0.122902 -0.0666,-0.181923 -0.0506,-0.02973 -0.12459,-0.07573 -0.16106,-0.09562 -0.002,0.0065 -0.005,0.01346 -0.004,0.02112 0.002,0.0248 0.007,0.04973 0.01,0.07513 0.062,0.05327 0.12909,0.110305 0.22526,0.187256 -2.9e-4,-0.001 -3.6e-4,-0.0022 -1.6e-4,-0.0033 z m -0.82912,-2.100611 c -0.003,0.02473 -0.009,0.04609 -0.0137,0.06919 -0.005,-0.02004 -0.0139,-0.05554 -0.0175,-0.07113 -0.003,-0.01204 0.0322,-0.0068 0.0312,0.002 z m 7.11482,25.9132195 -9.4e-4,-6.753e-4 c 0.007,0.023217 -0.0111,0.059211 -0.01,0.042827 7.9e-4,-0.019266 0.003,-0.036692 0.004,-0.055364 8.2e-4,0.00354 0.001,0.00925 0.007,0.013229 z m -5.22014,-18.3582115 c -0.007,0.0114 -0.0167,0.02017 -0.0172,0.03822 9e-5,0.0084 4.8e-4,0.01815 0.001,0.02635 0.008,-0.0074 0.0183,-0.01214 0.0261,-0.0191 -0.004,-0.01516 -0.007,-0.03054 -0.0104,-0.04543 z m -0.34882,2.512637 c -0.0146,-0.03209 -0.0218,-0.04615 -0.0362,-0.07779 -0.0805,-0.07107 -0.16131,-0.140149 -0.24191,-0.210325 0.17961,0.253524 0.31081,0.419634 0.27813,0.288107 z m 5.06588,19.1370918 c 0.007,0.037989 3.7e-4,0.065333 -0.006,0.092911 -0.002,-0.00516 5.9e-4,-0.00864 -0.006,-0.01522 -0.0261,-0.035068 -0.033,0.00709 -0.0497,0.010523 0.0339,-0.048657 0.0401,-0.062002 0.0599,-0.089597 z m -5.78782,-20.6860698 c -0.0581,-0.122172 -0.13636,-0.29471 -0.18881,-0.403393 -0.16053,-0.110612 -0.31197,-0.219014 -0.44611,-0.321786 0.004,0.101609 0.0197,0.193497 0.0531,0.28338 0.18407,0.13304 0.38262,0.286837 0.58178,0.441775 z m -0.53739,-1.655653 -9.4e-4,-6.75e-4 -9.3e-4,-6.75e-4 -9.4e-4,-6.75e-4 c -0.0177,-0.01006 -0.0345,-0.01871 -0.0519,-0.02904 -0.025,0.01969 -0.0523,0.04216 -0.0718,0.0494 -0.0191,0.0072 -0.0491,-0.06575 -0.0715,-0.117993 0.0151,0.05407 0.025,0.104119 0.0446,0.149678 0.021,0.01408 0.0369,0.02475 0.0585,0.03949 0.0344,-0.0095 0.0666,-0.03981 0.095,-0.08958 z m -0.20824,-0.12859 -9.3e-4,-6.75e-4 c -0.007,-0.0092 -0.0169,-0.02892 -0.019,-0.02636 -0.003,0.0054 5.4e-4,0.02686 0.0139,0.03425 0.004,0.002 0.005,0.0016 0.007,0.0032 -0.002,-0.0037 3.8e-4,-0.0067 -10e-4,-0.01053 z m 0.16565,0.893682 -9.4e-4,-6.75e-4 c 0.005,-0.01849 -0.0561,-0.0089 -0.057,0.01315 -3.5e-4,0.01083 1.2e-4,0.01589 -1.5e-4,0.02571 0.0273,-0.0088 0.0529,-0.01897 0.0581,-0.0382 z m 6.19526,22.3660407 c -0.0455,0.022833 -0.12397,0.04688 -0.28123,0.1059771 0.32504,0.2065891 0.33049,0.077363 0.28123,-0.1059771 z m -6.58071,-20.7720787 c -0.0314,0.06127 -0.044,0.120895 -0.0246,0.161444 0.0111,0.02322 0.0267,0.04941 0.0386,0.07316 -0.005,-0.07845 -0.009,-0.156141 -0.014,-0.234611 z m 0.63061,2.4385942 1.8e-4,6.749e-4 -9.3e-4,-6.753e-4 -9.4e-4,-6.752e-4 -0.003,-0.00203 -9.3e-4,-6.752e-4 c -0.006,0.0029 -0.009,0.00749 -0.0146,0.010521 -3.6e-4,-0.00215 5.1e-4,-0.00354 4e-5,-0.00523 -6.1e-4,-0.00759 0.007,-0.012684 0.0108,-0.019093 0.002,0.0052 0.004,0.010597 0.007,0.015895 z m -0.12438,0.5917348 c -0.004,-0.013461 -0.004,-0.011811 -0.008,-0.023116 -0.0134,0.031586 -0.0294,0.067078 -0.025,0.09686 5.3e-4,0.00319 0.004,0.00634 0.004,0.00992 0.0106,-0.026833 0.0181,-0.056643 0.0277,-0.084337 z m -0.30371,0.1092605 c -0.0298,0.017597 -0.0617,0.033154 -0.0921,0.050046 1.9e-4,-0.00202 0.001,-0.0056 0.003,-0.00658 0.0231,-0.0212 0.0752,-0.042657 0.0877,-0.044774 z m 6.10096,22.3449225 1.8e-4,6.74e-4 c 0.0107,0.0276 -0.0163,0.06404 -0.0161,0.0448 4.2e-4,-0.02382 0.003,-0.04482 0.006,-0.06656 0.004,0.0078 0.004,0.01185 0.01,0.02116 z m -5.23459,-17.6076099 c -0.0222,-0.042726 -0.28617,-0.5067196 -0.54659,-0.9992905 0.007,0.049272 0.014,0.078791 0.0205,0.1344537 0.40924,0.6730895 0.54353,0.8985281 0.52606,0.8648436 z m -1.81975,1.3514918 c 0.021,-0.012441 -0.0777,-0.015565 -0.10089,-0.00532 -0.0228,0.010045 -0.0324,0.034419 -0.0446,0.05534 0.0515,-0.013417 0.10464,-0.024957 0.14564,-0.049361 z m 5.10303,18.4128781 h -7.5e-4 l -9.3e-4,-6.75e-4 c -0.0133,-0.04906 -0.0258,-0.08462 -0.0203,-0.05472 0.0124,0.06467 0.0271,0.130151 0.0395,0.195071 6.9e-4,-0.0029 0.001,-0.0059 0.003,-0.0092 0.005,-0.02156 -0.007,-0.08184 -0.0202,-0.130479 z m 0.16819,1.63704 c 0.002,0.0053 -0.0162,-0.0186 -0.0176,-0.02373 -5.5e-4,-0.0087 7.2e-4,-0.01599 5.2e-4,-0.02439 0.007,0.02062 0.009,0.02339 0.0171,0.04819 z m -0.30209,1.236167 -0.007,-0.0053 c -0.003,0.02617 -0.008,0.04847 -0.0106,0.07512 0.004,-0.01002 0.0122,-0.01599 0.0151,-0.02703 0.003,-0.01248 0.001,-0.0272 0.001,-0.04216 z m -1.72495,0.440128 c 5.1e-4,0.0014 -2.8e-4,0.0017 0,0.0027 -0.009,-0.01957 -0.0117,-0.02767 -0.021,-0.04942 -0.007,-0.0166 0.0146,0.03145 0.0201,0.04613 z m 0.10219,0.48901 c -0.0387,0.04181 -0.0751,0.06795 6.7e-4,0.01049 -8.4e-4,-0.0057 -4.1e-4,-0.0055 -6.7e-4,-0.01049 z M -168.2767,6.4890232 c -0.0273,-0.018873 -0.0429,0.024076 -0.0526,0.089604 0.006,-0.00121 0.0107,-0.00489 0.0166,-0.00593 0.0108,-0.016798 0.0177,-0.026776 0.0358,-0.05534 -2e-5,-0.00948 -1.5e-4,-0.019131 1.7e-4,-0.028332 z m 3.35919,12.5535438 c -0.007,-0.03546 -0.0526,-0.068 -0.14079,-0.09629 -0.0225,0.13125 -0.0642,0.244889 -0.15594,0.304392 -0.0468,0.03034 -0.10688,0.04673 -0.16355,0.06649 -1.3e-4,0.0076 -1e-5,0.01559 -1.8e-4,0.02304 0.23393,-0.08567 0.48162,-0.19636 0.46044,-0.29767 z m -3.42116,-12.2345924 -9.3e-4,-6.752e-4 c 6e-5,0.00113 3e-4,0.00238 1.6e-4,0.00327 1.8e-4,-6.748e-4 1.8e-4,-0.00202 7.7e-4,-0.0026 z m 3.92193,16.4241254 c -0.002,-0.02001 -0.0717,-0.18114 -0.27709,-0.805426 0.10664,0.379883 0.17826,0.610886 0.2268,0.761244 0.0279,0.0212 0.05,0.05212 0.0503,0.04417 z m 0.0164,0.3908 -0.003,-0.0014 c -0.007,0.06314 -0.003,0.04802 -0.007,0.102162 0.003,-0.03306 0.007,-0.05753 0.01,-0.08568 -3e-4,-0.0038 4.8e-4,-0.01174 -4.5e-4,-0.01508 z m -0.003,-0.0014 c 3.7e-4,-0.0027 -4.2e-4,-0.0017 2.2e-4,-0.0046 l -9.3e-4,-6.75e-4 c 2.8e-4,-0.0017 1.8e-4,0.0033 7.1e-4,0.0053 z m -4.79569,-12.796019 h -7.5e-4 l 1.9e-4,6.75e-4 c -0.002,0.0047 8.8e-4,0.0099 -0.003,0.01383 -0.002,0.005 -0.0212,-0.03331 -0.0117,-0.02636 0.005,0.0034 0.0105,0.0087 0.015,0.01188 z m 3.76009,14.294148 c -0.0835,-0.308845 -0.17383,-0.493066 -0.2162,-0.359908 -0.1088,0.342199 0.22489,1.052084 0.28932,1.54154 0.0394,-0.01915 0.072,-0.04506 0.10049,-0.07508 -0.0141,-0.365102 -0.0903,-0.797899 -0.17361,-1.106548 z m -4.46301,-6.908969 c -0.009,-0.01954 -0.0155,-0.03927 -0.0238,-0.05931 -0.0172,0.05395 -0.0247,0.106888 -0.003,0.106111 0.0243,-6.31e-4 0.0119,-0.0398 0.0179,-0.0593 0.002,0.0059 0.001,0.01032 0.006,0.01714 6.5e-4,-0.0017 0.002,-0.0023 0.003,-0.0039 z" />
    </clipPath>
  </defs>
  <g
     inkscape:label="background"
     inkscape:groupmode="layer"
     id="layer1"
     sodipodi:insensitive="true"
     style="display:inline" />
  <g
     inkscape:groupmode="layer"
     id="g17316"
     inkscape:label="circle_dot"
     style="display:inline">
    <ellipse
       style="fill:none;fill-rule:evenodd;stroke:#000000;stroke-width:6.16903;stroke-miterlimit:4;stroke-dasharray:6.16903, 6.16903;stroke-dashoffset:0;stroke-opacity:1"
       id="ellipse17314"
       cx="-27.650719"
       cy="87.986725"
       rx="21.496397"
       ry="91.079529"
       transform="matrix(-0.70727648,-0.70693704,0.98052943,0.19637218,0,0)" />
  </g>
  <g
     inkscape:groupmode="layer"
     id="layer3"
     inkscape:label="text_bckgound"
     style="display:inline">
    <text
       xml:space="preserve"
       transform="matrix(0.53965548,0,0,0.53965548,-58.879604,-175.59099)"
       id="text3924"
       style="font-style:normal;font-weight:normal;font-size:40px;line-height:1.25;font-family:sans-serif;white-space:pre;shape-inside:url(#rect3926);fill:#006a80;fill-opacity:0.965714;stroke:none"><tspan
         x="155.59766"
         y="415.63319"
         id="tspan59951"><tspan
           style="font-size:96px;font-family:Impact;-inkscape-font-specification:'Impact, Normal'"
           id="tspan59949">SEB DEV</tspan></tspan></text>
  </g>
  <g
     inkscape:groupmode="layer"
     id="g18179"
     inkscape:label="circle_line">
    <ellipse
       style="fill:none;fill-rule:evenodd;stroke:#000000;stroke-width:3.02456;stroke-miterlimit:4;stroke-dasharray:none;stroke-dashoffset:0;stroke-opacity:1"
       id="ellipse18177"
       cx="-173.8187"
       cy="-18.245165"
       rx="10.539295"
       ry="44.654648"
       transform="matrix(-1.4425913,-1.441899,1.9999297,0.40052909,-108.43002,-206.49582)"
       clip-path="url(#clipPath18665)" />
  </g>
</svg>
